<?xml version="1.0" encoding="utf-8"?>
<!-- Generator: Adobe Illustrator 17.0.0, SVG Export Plug-In . SVG Version: 6.00 Build 0)  -->
<!DOCTYPE svg PUBLIC "-//W3C//DTD SVG 1.1//EN" "http://www.w3.org/Graphics/SVG/1.1/DTD/svg11.dtd">
<svg version="1.1" xmlns="http://www.w3.org/2000/svg" xmlns:xlink="http://www.w3.org/1999/xlink" x="0px" y="0px" width="200px"
	 height="200px" viewBox="0 0 200 200" enable-background="new 0 0 200 200" xml:space="preserve">
<g id="bg" display="none">
	<g display="inline">
		<radialGradient id="SVGID_1_" cx="100" cy="100" r="100" gradientUnits="userSpaceOnUse">
			<stop  offset="0" style="stop-color:#FAFAFA"/>
			<stop  offset="0.4388" style="stop-color:#C2C2C2"/>
		</radialGradient>
		<rect fill="url(#SVGID_1_)" width="200" height="200"/>
		<g>
			<path fill="#CECECE" d="M200,198.5c-49.383,0-98.765,0-148.148,0c-17.284,0-34.568,0-51.852,0c0.5,0.5,1,1,1.5,1.5
				c0-49.383,0-98.765,0-148.148c0-17.284,0-34.568,0-51.852C1,0.5,0.5,1,0,1.5c49.383,0,98.765,0,148.148,0
				c17.284,0,34.568,0,51.852,0c-0.5-0.5-1-1-1.5-1.5c0,49.383,0,98.765,0,148.148c0,17.284,0,34.568,0,51.852c0,1.935,3,1.935,3,0
				c0-49.383,0-98.765,0-148.148c0-17.284,0-34.568,0-51.852c0-0.818-0.682-1.5-1.5-1.5c-49.383,0-98.765,0-148.148,0
				c-17.284,0-34.568,0-51.852,0c-0.818,0-1.5,0.682-1.5,1.5c0,49.383,0,98.765,0,148.148c0,17.284,0,34.568,0,51.852
				c0,0.818,0.682,1.5,1.5,1.5c49.383,0,98.765,0,148.148,0c17.284,0,34.568,0,51.852,0C201.935,201.5,201.935,198.5,200,198.5z"/>
		</g>
	</g>
</g>
<g id="fire">
	<path id="R_fire" fill="#FFAA00" d="M150.996,27c-5.25,14.125-0.962,20.736,4.75,32c7,13.803,15.75,29,1.25,40.25
		c9.375,2.375,12.756-11.986,12.5-8.25c-1.833,26.763-27.681,31.373-41.104,25.14c-12.146-5.64-14.979-19.807-13.146-27.89
		c2.065-9.106,19.049-20.133,16-33.75c1.117-0.282,14.188,10.375,1.5,24.75c8.563-0.5,13.25-12.875,11.535-20.235
		C142.262,50.352,141.496,32.75,150.996,27z"/>
	<path id="L_fire" fill="#EE3333" d="M48.25,27c5.25,14.125,0.962,20.736-4.75,32c-7,13.803-15.75,29-1.25,40.25
		c-9.375,2.375-12.756-11.986-12.5-8.25c1.833,26.763,27.681,31.373,41.104,25.14C83,110.5,85.833,96.333,84,88.25
		c-2.065-9.106-19.049-20.133-16-33.75c-1.117-0.282-14.188,10.375-1.5,24.75c-8.563-0.5-13.25-12.875-11.535-20.235
		C56.984,50.352,57.75,32.75,48.25,27z"/>
</g>
<g id="shield">
	<path id="L_x5F_shield" fill="#FFFFFF" d="M100,69c-19.25,12.125-40.333,0-40.333,0l-8.792,8.042c0,0,9.792,11.208,7,22.042
		c0,0-2.159,8.666-2.957,13.514c-2.897,17.605-1.49,38.508,15.957,42.548c8.471,1.962,18.125,3.604,29.113,19.031"/>
	<path id="R_x5F_shield" fill="#FFFFFF" d="M99.875,69c19.25,12.125,40.333,0,40.333,0L149,77.042c0,0-9.792,11.208-7,22.042
		c0,0,2.159,8.666,2.957,13.514c2.897,17.605,1.49,38.508-15.957,42.548c-8.471,1.962-18.125,3.604-29.113,19.031"/>
</g>
<g id="shield_x5F_help" display="none">
	<polygon display="inline" points="99.797,173.078 100.297,173.608 100.297,174.453 99.93,174.922 98.688,173.234 	"/>
	<g id="Layer_15" display="inline">
		<path d="M99.578,68.672"/>
		<polygon points="99.938,68.453 100.313,68.703 100.188,69.125 99.484,69.094 99.5,68.719 		"/>
		<polygon points="99.781,69.719 100.125,69.563 100,69.281 99.641,69.422 		"/>
	</g>
</g>
<g id="small_shield">
	<path id="L_x5F_shield_1_" d="M99.991,76.006C83.488,86.401,61.25,75.5,61.25,75.5l-3.375,3.25c0,0,8.395,13.76,6.001,23.047
		c0,0-1.851,7.429-2.535,11.586c-2.483,15.093-1.278,33.014,13.68,36.478c7.263,1.682,15.539,3.09,24.959,16.316"/>
	<path id="L_x5F_shield_2_" d="M99.875,76.006c16.504,10.395,38.741-0.506,38.741-0.506l3.375,3.25c0,0-8.395,13.76-6.001,23.047
		c0,0,1.851,7.429,2.535,11.586c2.483,15.093,1.278,33.014-13.68,36.478c-7.263,1.682-15.539,3.09-24.959,16.316"/>
</g>
<g id="V_V">
	<text transform="matrix(1 0 0 1 73.75 134.75)" fill="#FFFFFF" font-family="'Archive'" font-size="59">V</text>
	
		<text transform="matrix(1 0 0 1 78.5885 134.75)" display="none" opacity="0.2" fill="#CCCCCC" font-family="'Archive'" font-size="59">V</text>
	<g opacity="0.7">
		<path fill="#FFFFFF" d="M123.49,95.924h-6.255c-1.593,0-2.006,0.473-2.478,1.889l-12.133,36.938c0,0,0.632,0,1.216,0h5.665
			c1.298,0,1.711-0.236,2.419-1.771l12.628-35.344C124.848,96.868,124.611,95.924,123.49,95.924z"/>
		<path fill="#FFFFFF" d="M89.798,95.924c-1.121,0-1.357,0.944-1.063,1.712l3.676,10.241l3.87-11.953H89.798z"/>
		<line fill="#FFFFFF" x1="96.282" y1="95.924" x2="96.348" y2="95.924"/>
	</g>
</g>
<g id="Helmet">
	<g id="helmet_main">
		<path fill="#43C423" d="M78.875,55.25C84.25,30.5,115.25,34.5,117,56.625C113.75,61.875,96.875,61,96.875,61
			S84,60.875,78.875,55.25z"/>
	</g>
	<g id="h">
		<path fill="#43C423" d="M118.904,57.932l2.596,1.818c-8.089,6.813-26,8.188-42.625-2.875
			C88.667,64.75,113.411,64.063,118.904,57.932z"/>
	</g>
	<g id="_x32__stripes">
		<path fill="#FFFFFF" d="M99.872,42c5.378,4,10.972,10.235,12.055,17.693l1.484-0.498c-0.24-5.677-8.411-15.903-12.37-16.987
			C100.669,42.106,100.623,42.091,99.872,42z"/>
		<path fill="#FFFFFF" d="M103.872,40c5.378,4,10.971,10.351,12.054,17.81c0,0,0.938-0.809,1.074-1.185
			c-0.828-7.359-7.969-14.688-11.844-16.219C105.156,40.406,104.15,39.992,103.872,40z"/>
	</g>
	<g id="_x32__boxes">
		<path fill="#FFFFFF" d="M102,61c0.25-0.006,0-1,0-1h-4c0,0-0.25,0.993,0,1C99.83,61.055,99.83,61.055,102,61z"/>
		<path fill="#FFFFFF" d="M84.598,58.817c0.231,0.096,0.423-0.885,0.423-0.885l-3.661-1.669c0,0-0.577,0.661-0.36,0.784
			C82.765,58.045,82.664,58.016,84.598,58.817z"/>
	</g>
</g>
<g id="helmet_overlayer" display="none" opacity="0.7">
	<path display="inline" fill="#FFF800" d="M78.548,56.657C82,39.25,94.75,36.833,102.703,38.938
		c9.589,2.479,13.547,10.229,14.297,17.688c1.542,1.083,3.177,2.199,4.5,3.125c-8.833,10.25-27.949,3.824-27.949,3.824
		S82.986,60.396,78.548,56.657z"/>
</g>
</svg>
